<svg width="200" height="200" xmlns="http://www.w3.org/2000/svg">
 <!-- Created with Method Draw - http://github.com/duopixel/Method-Draw/ -->

 <g>
  <title>background</title>
  <rect fill="none" id="canvas_background" height="202" width="202" y="-1" x="-1"/>
  <g display="none" overflow="visible" y="0" x="0" height="100%" width="100%" id="canvasGrid">
   <rect fill="url(#gridpattern)" stroke-width="0" y="0" x="0" height="100%" width="100%"/>
  </g>
 </g>
 <g>
  <title>Layer 1</title>
  <g id="svg_13"/>
  <g transform="matrix(0.15562292538550673,0,0,0.1632789423296974,-211.30172605829273,-266.4446641122248) " id="svg_17">
   <path id="svg_18" fill="#ffffff" d="m2522.779409,2543.115037l-17.773438,0c-1.664062,-27.023438 -8.246094,-53.105469 -19.636718,-77.625c-1.738282,-3.753907 -6.191407,-5.378907 -9.945313,-3.640626c-3.753906,1.742188 -5.382813,6.195313 -3.640625,9.949219c10.464844,22.535157 16.570312,46.492188 18.210938,71.316407l-343.070313,0c-4.136719,0 -7.488281,3.351562 -7.488281,7.488281s3.351562,7.488281 7.488281,7.488281l375.855469,0c3.789062,0 6.867187,3.082031 6.867187,6.871094l0,9.140625c0,3.789062 -3.078125,6.871093 -6.867187,6.871093l-468.304688,0c-3.789062,0 -6.867187,-3.082031 -6.867187,-6.871093l0,-9.140625c0,-3.789063 3.078125,-6.871094 6.867187,-6.871094l57.539063,0c4.136719,0 7.492187,-3.351562 7.492187,-7.488281s-3.355468,-7.488281 -7.492187,-7.488281l-24.753907,0c3.300782,-49.753907 24.636719,-96.039063 60.597657,-131.046876c34.65625,-33.734374 79.4375,-53.59375 127.296875,-56.742187c0.027344,0 0.054687,0.003906 0.082031,0c2.039063,-0.132813 4.054687,-0.234375 6.046875,-0.308594c0.398438,-0.011719 0.792969,-0.03125 1.191406,-0.042969c0.710938,-0.023437 1.417969,-0.039062 2.117188,-0.054687c1.34375,-0.023437 2.6875,-0.046875 4.035156,-0.046875c1.789062,0 3.578125,0.035156 5.363281,0.082031c0.527344,0.015625 1.050781,0.03125 1.582031,0.046875c1.375,0.046875 2.746094,0.117188 4.117188,0.191406c0.726562,0.039063 1.453125,0.078126 2.183594,0.125c61.488281,4.039063 118.058594,36.015626 153.261718,87.289063c2.339844,3.40625 7.003907,4.277344 10.414063,1.933594c3.410156,-2.339844 4.277344,-7.003907 1.933594,-10.414063c-34.640625,-50.457031 -88.558594,-83.503906 -148.152344,-92.027344c3.734375,-5.796874 5.832031,-12.621093 5.832031,-19.769531c0,-4.070312 -1.816406,-11.574219 -13.980468,-16.050781c-6.074219,-2.234375 -14.085938,-3.46875 -22.554688,-3.46875c-8.472656,0 -16.484375,1.234375 -22.558594,3.46875c-12.164062,4.476562 -13.976562,11.980469 -13.976562,16.050781c0,7.128907 2.089844,13.941407 5.800781,19.726563c-45.246094,6.402344 -87.210937,26.886718 -120.484375,59.277344c-38.871094,37.839843 -61.835938,87.949218 -65.160156,141.777343l-17.773438,0c-12.046875,0.003907 -21.847656,9.804688 -21.847656,21.851563l0,9.140625c0,12.050781 9.800781,21.851562 21.847656,21.851562l80.683594,0c-4.027344,2.757813 -7.886719,5.851563 -11.5,9.285157l-0.148438,0.140624c-0.230468,0.214844 -0.449218,0.445313 -0.648437,0.691407l-35.558594,43.179687c-4.460937,-2.832031 -9.742187,-3.863281 -14.953125,-2.863281c-5.433594,1.039063 -10.132812,4.132813 -13.234375,8.710937l-13.984375,20.621094c-6.394531,9.433594 -3.925781,22.320313 5.5,28.722656l95.691406,65.007813c3.46875,2.355469 7.476563,3.582031 11.582032,3.582031c1.304687,0 2.621094,-0.125 3.933594,-0.375c5.429687,-1.039062 10.128906,-4.132812 13.230468,-8.710937l13.984375,-20.621094c6.394531,-9.433594 3.929688,-22.320313 -5.496093,-28.722656l-0.546876,-0.371094c6.660157,-7.558594 15.539063,-12.976563 25.199219,-15.210937c20.355469,-4.714844 44.308594,-1.679688 60.554688,1.011718c20.097656,3.328125 41.207031,2.191406 61.046875,-3.289062l27.578125,-7.621094c18.371093,-5.078125 35.277343,-13.628906 50.253906,-25.417969c0.113281,-0.089843 0.222656,-0.179687 0.332031,-0.277343l47.347656,-41.933594c8.070313,-6.175782 9.828126,-16.871094 7.042969,-25.539063l60.414063,0c12.046875,0 21.847656,-9.800781 21.847656,-21.847656l0,-9.144531c0,-12.046875 -9.800781,-21.847656 -21.847656,-21.847656zm-234.152344,-225.324219c12.613281,0 20.171875,3.121093 21.554688,4.855469c-0.101563,7.105468 -3.695313,13.660156 -9.542969,17.589843c-1.472657,-0.078125 -2.925781,-0.140625 -4.375,-0.195312c-0.488281,-0.015625 -0.976563,-0.039063 -1.464844,-0.050781c-2.089844,-0.0625 -4.152344,-0.09375 -6.171875,-0.09375c-1.433594,0 -2.894531,0.019531 -4.367188,0.050781c-0.710937,0.011719 -1.425781,0.03125 -2.140624,0.054687c-0.851563,0.027344 -1.710938,0.054688 -2.570313,0.089844c-0.980469,0.042969 -1.960937,0.085938 -2.9375,0.140625c-5.847656,-3.929687 -9.4375,-10.484375 -9.539063,-17.585937c1.382813,-1.734376 8.941407,-4.855469 21.554688,-4.855469zm53.710938,281.777343c-0.558594,-1.265624 -1.226563,-2.46875 -1.980469,-3.613281l71.839843,0l-31.0625,20.558594l-44.277343,12.808594l-1.503907,0.035156c8.523438,-7.105469 11.632813,-19.238281 6.984376,-29.789063zm-81.21875,-3.613281l-10.808594,2.253907l-8.355469,-2.253907l19.164063,0zm-84.464844,138.964844l-13.980469,20.621094c-0.855469,1.265625 -2.152344,2.117187 -3.652344,2.40625c-1.496093,0.285156 -3.019531,-0.027344 -4.28125,-0.886719l-95.691406,-65.007812c-2.601563,-1.765626 -3.28125,-5.320313 -1.515625,-7.921876l13.984375,-20.625c0.855469,-1.261718 2.148437,-2.117187 3.648437,-2.402343c0.363282,-0.070313 0.726563,-0.105469 1.085938,-0.105469c1.132812,0 2.238281,0.339844 3.195312,0.992188l5.167969,3.507812c0,0.003906 0.003907,0.003906 0.003907,0.003906l90.519531,61.492188c2.601562,1.765625 3.28125,5.324218 1.515625,7.925781zm269.476562,-125.253906c-0.179687,0.128906 -0.351562,0.269531 -0.519531,0.417969l-47.398437,41.984374c-13.363282,10.480469 -28.441407,18.089844 -44.8125,22.613282l-27.578126,7.621094c-17.757812,4.910156 -36.640624,5.929687 -54.605468,2.953124c-17.507813,-2.898437 -43.429688,-6.144531 -66.386719,-0.828124c-13.296875,3.078124 -25.4375,10.71875 -34.269531,21.34375l-70.792969,-48.089844l34.359375,-41.726563c12.996094,-12.269531 29.476562,-19.554687 45.257812,-20l0.304688,0c4.894531,-0.082031 10.074219,1.359375 15.554688,2.894531c1.101562,0.304688 2.199218,0.613282 3.300781,0.910157l49.59375,13.378906c1.136719,0.304687 2.328125,0.339844 3.480469,0.097656l64.953124,-13.542969c2.945313,-0.609374 6.039063,-0.011718 8.488282,1.648438c1.582031,1.074219 2.816406,2.550781 3.570312,4.265625c2.226563,5.050781 0.128906,10.980469 -4.847656,13.542969l-22.160156,11.734375c-3.066406,1.625 -4.613282,5.140625 -3.742188,8.5c0.875,3.363281 3.933594,5.652343 7.410156,5.605469l32.871094,-0.710938c0.652344,-0.015625 1.296875,-0.113281 1.917969,-0.292969l46.316406,-13.398437c0.730469,-0.210938 1.421875,-0.53125 2.054688,-0.949219l46.726562,-30.929687c3.921875,-2.421876 9.140625,-4.414063 11.917969,-0.316407c2.164062,3.1875 2.214844,8.925781 -0.964844,11.273438zm0,0"/>
  </g>
  <g id="svg_19"/>
  <g transform="matrix(0.1447046392580262,0,0,0.14035404775602997,-24.942460648859196,-9.127751603577053) " id="svg_23">
   <path id="svg_24" fill="#ffffff" d="m688.176996,386.622684l30.082031,-1.90625c0.050781,-0.003906 0.105469,-0.007812 0.160156,-0.011718c21.4375,-1.808594 40.679688,-13.039063 52.796875,-30.820313l23.78125,-34.890625c20.699219,-30.375 28.71875,-67.0625 22.574219,-103.300781c-1.207031,-7.117187 -4.847656,-13.675781 -10.246094,-18.460937c-5.402343,-4.789063 -12.347656,-7.617188 -19.558593,-7.960938c-36.726563,-1.757812 -72.175782,10.605469 -99.847657,34.796875l-31.789062,27.792969c-16.199219,14.160156 -25.042969,34.609375 -24.269531,56.113281c0.003906,0.050781 0.003906,0.105469 0.007812,0.160156l1.714844,30.089844c0.667968,11.730469 -3.632813,23.304687 -11.777344,31.734375l-248.351562,255.132812c-6.648438,6.933594 -10.082032,16.445313 -9.664063,26.785157c0.460937,11.382812 5.683594,22.5625 13.972656,29.910156c7.488281,6.636719 17.78125,10.417969 28.070313,10.417969c1.101562,0 2.203125,-0.042969 3.300781,-0.132813c10.316406,-0.824219 19.351563,-5.371093 25.46875,-12.847656l223.464844,-277.085937c7.410156,-9.117188 18.386719,-14.773438 30.109375,-15.515626zm-42.039063,5.859376l-223.445312,277.0625c-3.414063,4.171874 -8.664063,6.742187 -14.78125,7.230468c-7.277344,0.582032 -14.738281,-1.839844 -19.964844,-6.472656c-5.226563,-4.636719 -8.523437,-11.753906 -8.816406,-19.046875c-0.25,-6.128906 1.667969,-11.648437 5.363281,-15.5l248.332031,-255.113281c11.132813,-11.519532 16.992188,-27.296875 16.085938,-43.289063l-1.714844,-30.011719c-0.582031,-16.832031 6.351563,-32.835937 19.035156,-43.925781l31.789063,-27.792969c24.671875,-21.566406 56.289062,-32.578124 89.015625,-31.023437c3.726562,0.179687 7.3125,1.640625 10.105469,4.117187c2.792968,2.472657 4.671874,5.863282 5.296874,9.539063c5.476563,32.308594 -1.671874,65.011719 -20.125,92.089844l-23.78125,34.894531c-9.488281,13.921875 -24.546874,22.722656 -41.328124,24.164062l-30,1.898438c-15.984376,1.015625 -30.945313,8.726562 -41.066407,21.179688zm0,0"/>
   <path id="svg_25" fill="#ffffff" d="m805.407464,623.153934l-166.519531,-151.667968c-3.132812,-2.855469 -7.984375,-2.628906 -10.84375,0.503906c-2.851562,3.132812 -2.625,7.988281 0.507813,10.84375l166.476562,151.632812c3.960938,3.660157 6.207032,9.054688 6.328125,15.1875c0.144531,7.296876 -2.71875,14.597657 -7.660156,19.539063c-4.9375,4.9375 -12.226563,7.808594 -19.539063,7.660156c-6.132812,-0.121093 -11.527343,-2.367187 -15.148437,-6.285156l-148.382813,-162.90625c-2.855468,-3.136719 -7.710937,-3.359375 -10.84375,-0.507813c-3.132812,2.855469 -3.359374,7.710938 -0.503906,10.84375l148.417969,162.945313c6.523437,7.054687 15.8125,11.054687 26.160156,11.257813c0.269531,0.003906 0.535157,0.007812 0.804688,0.007812c11.121093,0 22.242187,-4.511719 29.886719,-12.160156c7.835937,-7.835938 12.378906,-19.308594 12.152343,-30.695313c-0.203125,-10.347656 -4.199219,-19.636719 -11.292969,-26.199219zm0,0"/>
   <path id="svg_26" fill="#ffffff" d="m400.196527,385.16956c12.703125,11.703124 29.207031,18.375 46.472656,18.789062c0.054688,0.003906 0.109375,0.003906 0.160157,0.003906l30.140624,0.09375c11.75,0.035156 23.042969,5.023438 30.96875,13.660156l13.277344,14.574219c1.515625,1.664063 3.589844,2.507813 5.675782,2.507813c1.84375,0 3.695312,-0.660156 5.164062,-2c3.136719,-2.855469 3.363281,-7.710938 0.507812,-10.84375l-13.296874,-14.59375c-10.828126,-11.804688 -26.226563,-18.601563 -42.246094,-18.65625l-30.058594,-0.09375c-13.355469,-0.339844 -26.125,-5.453125 -36.019531,-14.410156l-87.347657,-103.835938c-0.890624,-1.0625 -0.824218,-2.601562 0.15625,-3.582031c0.671876,-0.675781 1.460938,-0.773438 1.871094,-0.773438s1.199219,0.097657 1.875,0.773438l79.507813,79.511719c7.859375,7.859374 20.648437,7.859374 28.507812,-0.003907l9.34375,-9.339843l0,-0.003907l16.589844,-16.589843s0.003906,0 0.003906,-0.003907c0,0 0.003907,-0.003906 0.003907,-0.003906l9.339843,-9.339844c7.859375,-7.859375 7.859375,-20.648437 0,-28.507812l-79.507812,-79.507813c-1.03125,-1.03125 -1.03125,-2.714844 0,-3.746094c0.980469,-0.980468 2.519531,-1.046874 3.582031,-0.15625l103.835938,87.351563c8.960937,9.890625 14.074218,22.664063 14.414062,36.015625l0.089844,30.0625c0.054687,16.015625 6.855468,31.414062 18.675781,42.265625l14.226563,12.957031c3.136718,2.855469 7.988281,2.628906 10.84375,-0.503906c2.851562,-3.136719 2.625,-7.988281 -0.507813,-10.84375l-14.203125,-12.9375c-8.660156,-7.945312 -13.644531,-19.242188 -13.683594,-30.988281l-0.09375,-30.140625c0,-0.054688 0,-0.109375 -0.003906,-0.164063c-0.414062,-17.265625 -7.085938,-33.769531 -18.789062,-46.472656c-0.21875,-0.238281 -0.453126,-0.464844 -0.703126,-0.675781l-104.222656,-87.671875c-7.203125,-6.0625 -17.65625,-5.609375 -24.3125,1.046875c-7.019531,7.019531 -7.019531,18.4375 0,25.453125l79.507813,79.511719c1.875,1.875 1.875,4.925781 0,6.800781l-3.917969,3.914062l-88.613281,-88.609375c-2.996094,-3 -7.855469,-3 -10.851563,0c-2.996094,2.996094 -2.996094,7.855469 0,10.851563l88.613282,88.613281l-5.742188,5.738281l-88.613281,-88.609375c-2.996094,-2.996094 -7.855469,-2.996094 -10.851563,0c-3,2.996094 -3,7.855469 0,10.851563l88.609375,88.613281l-3.914062,3.917969c-1.875,1.875 -4.925781,1.875 -6.800781,0l-79.511719,-79.507813c-3.398438,-3.398437 -7.917969,-5.273437 -12.726563,-5.273437s-9.328125,1.875 -12.726562,5.273437c-6.65625,6.65625 -7.105469,17.109375 -1.046875,24.316406l87.675781,104.21875c0.207031,0.25 0.433594,0.484376 0.671875,0.703126zm0,0"/>
  </g>
  <g id="svg_27"/>
 </g>
</svg>